<?xml version="1.0" encoding="utf-8"?>
<!-- Generator: Adobe Illustrator 28.0.0, SVG Export Plug-In . SVG Version: 6.00 Build 0)  -->
<svg version="1.1" id="Слой_1" xmlns="http://www.w3.org/2000/svg" xmlns:xlink="http://www.w3.org/1999/xlink" x="0px" y="0px"
	 viewBox="0 0 745 1000" style="enable-background:new 0 0 745 1000;" xml:space="preserve">
<style type="text/css">
	.st0{fill:#FC3F1D;}
	.st1{fill:#FFFFFF;}
	.st2{fill-rule:evenodd;clip-rule:evenodd;fill:#E63F0C;}
	.st3{fill-rule:evenodd;clip-rule:evenodd;fill:#000003;}
</style>
<path class="st0" d="M372.5,0L372.5,0c199.3,0,360.9,161.6,360.9,360.9l0,0c0,199.3-161.6,360.9-360.9,360.9l0,0
	c-199.3,0-360.9-161.6-360.9-360.9l0,0C11.6,161.6,173.2,0,372.5,0z"/>
<path class="st1" d="M422.6,568.4H498v-433H388.3C278,135.3,220,192,220,275.5c0,66.7,31.8,105.9,88.5,146.4l-98.4,146.4h81.6
	l109.6-163.9l-38-25.5c-46.1-31.1-68.5-55.4-68.5-107.8c0-46.1,32.4-77.3,94.1-77.3h33.6L422.6,568.4L422.6,568.4z"/>
<g>
	<path class="st2" d="M90.8,810.5H76.4c-26.4,0-40.2,13.2-40.2,32.8c0,22.2,9.6,32.5,29.3,45.8l16.2,10.8l-46.9,69.6H0l42.1-62.2
		c-24.2-17.2-37.8-33.9-37.8-62.2c0-35.5,24.8-59.5,71.9-59.5H123v183.9H90.8V810.5z"/>
	<path class="st3" d="M352.6,944.7h-44.7c8.8-20.1,11.2-56.4,11.2-79.4v-4h33.6v83.4H352.6z M384.3,836.5h-92.4v11.4
		c0,32.5-2.1,74.6-13.3,96.8h-9.9v55.3H298v-30.4h71.1v30.4h29.3v-55.3h-14.1V836.5L384.3,836.5z"/>
	<polygon class="st3" points="223.7,889.1 181.4,889.1 181.4,836.5 149.7,836.5 149.7,969.6 181.4,969.6 181.4,914 223.7,914 
		223.7,969.6 255.4,969.6 255.4,836.5 223.7,836.5 	"/>
	<path class="st3" d="M714.3,858.7c12.3,0,24.2,4.2,30.6,8.2v-26.7c-6.7-3.7-18.4-6.4-34.1-6.4c-40.5,0-61.5,28.8-61.5,69.3
		c0,44.5,20.5,69.1,62.9,69.1c14.7,0,25-2.6,32.8-8.2v-25.7c-8,5.6-17.6,9-30.9,9c-22.6,0-32-17.5-32-45
		C682.1,873.5,693.6,858.7,714.3,858.7z"/>
	<polygon class="st3" points="645.1,836.5 613.1,836.5 568.4,897.9 568.4,836.5 536.7,836.5 536.7,969.6 568.4,969.6 568.4,904.2 
		615.3,969.6 651.2,969.6 600.3,897.9 	"/>
	<path class="st3" d="M483.1,891h-44.2c0.8-21.2,8.5-32.3,23.7-32.3c15.7,0,20.5,13,20.5,29.6V891L483.1,891z M463.2,833.8
		c-38.6,0-57,29.4-57,69.6c0,46.3,22.9,68.8,63.4,68.8c20.2,0,35.2-5.3,44.5-11.6v-25.7c-9.9,6.6-26.4,12.4-41.8,12.4
		c-23.2,0-32-10.8-33.3-33.1h76.4v-16.7C515.4,851.3,494.9,833.8,463.2,833.8z"/>
</g>
</svg>
